<svg width="25" height="25" viewBox="0 0 25 25" fill="none" xmlns="http://www.w3.org/2000/svg">
<path d="M12.2001 18C8.50012 18 3.80012 15.9 2.50012 12.6V12.3L2.60012 11.6C3.90012 8.30002 8.90012 5.90002 13.0001 6.00002C16.5001 6.10002 21.7001 8.40002 22.8001 11.6L22.9001 11.9L22.8001 12.5C21.6001 15.7 16.1001 17.9 12.5001 18H12.2001ZM4.50012 12.1C5.40012 13.9 8.70012 16.1 12.5001 16C15.4001 16 19.9001 14 20.8001 12.1C19.9001 9.90002 15.7001 8.10002 12.9001 8.00002C9.60012 7.90002 5.60012 9.90002 4.50012 12.1Z" fill="#249BF1"/>
<path d="M12.5001 15.1C14.157 15.1 15.5001 13.7569 15.5001 12.1C15.5001 10.4432 14.157 9.10002 12.5001 9.10002C10.8433 9.10002 9.50012 10.4432 9.50012 12.1C9.50012 13.7569 10.8433 15.1 12.5001 15.1Z" fill="#249BF1"/>
<path d="M21.1973 1.88848L2.45911 20.6266L3.87331 22.0408L22.6115 3.30268L21.1973 1.88848Z" fill="black"/>
<path d="M21.1001 2.60001L21.8001 3.30001L3.80007 21.3L3.10007 20.6L21.1001 2.60001ZM21.1001 1.20001L20.4001 1.90001L2.40007 19.9L1.70007 20.6L2.40007 21.3L3.10007 22L3.80007 22.7L4.50007 22L22.5001 4.00001L23.2001 3.30001L22.5001 2.60001L21.8001 1.90001L21.1001 1.20001Z" fill="white"/>
</svg>
