<svg width="25" height="25" viewBox="-.5 -1 29 28" fill="none" xmlns="http://www.w3.org/2000/svg">
<g clip-path="url(#clip0_334_55984)">
<path d="M17 16H13V14H15V12H17V16Z" fill="#249BF1"/>
<path d="M11.3 14H7.80005V16H11.3V14Z" fill="#249BF1"/>
<path d="M6 16H2V12H4V14H6V16Z" fill="#249BF1"/>
<path d="M4 6.80002H2V10.3H4V6.80002Z" fill="#249BF1"/>
<path d="M4 5.00002H2V1.00002H6V3.00002H4V5.00002Z" fill="#249BF1"/>
<path d="M11.3 1.00002H7.80005V3.00002H11.3V1.00002Z" fill="#249BF1"/>
<path d="M17 5.00002H15V3.00002H13V1.00002H17V5.00002Z" fill="#249BF1"/>
<path d="M17 6.80002H15V10.3H17V6.80002Z" fill="#249BF1"/>
<path d="M26 12H13V25H26V12Z" fill="#249BF1"/>
</g>
<defs>
<clipPath id="clip0_334_55984">
<rect width="24.1" height="24.1" fill="white" transform="translate(2 1.00002)"/>
</clipPath>
</defs>
</svg>
