<svg width="25" height="25" viewBox="0 0 25 25" fill="none" xmlns="http://www.w3.org/2000/svg">
<path d="M12.2001 18.1C8.50012 18.1 3.80012 16 2.50012 12.7V12.4L2.60012 11.7C3.90012 8.4 8.90012 6 13.0001 6.1C16.5001 6.2 21.7001 8.5 22.8001 11.7L22.9001 12L22.8001 12.6C21.6001 15.8 16.1001 18 12.5001 18.1H12.2001ZM4.50012 12.2C5.40012 14 8.70012 16.2 12.5001 16.1C15.4001 16.1 19.9001 14.1 20.8001 12.2C19.9001 10 15.7001 8.2 12.9001 8.1C9.60012 8 5.60012 10 4.50012 12.2Z" fill="#249BF1"/>
<path d="M12.5001 15.2C14.157 15.2 15.5001 13.8569 15.5001 12.2C15.5001 10.5432 14.157 9.20001 12.5001 9.20001C10.8433 9.20001 9.50012 10.5432 9.50012 12.2C9.50012 13.8569 10.8433 15.2 12.5001 15.2Z" fill="#249BF1"/>
</svg>
