<svg width="29" height="28" viewBox="0 0 29 28" fill="none" xmlns="http://www.w3.org/2000/svg">
<path d="M13.3862 15.8067L11.7194 14.8428C11.7194 14.8428 10.6409 16.6742 9.56238 18.5055C8.48386 20.3368 9.17019 22.8428 9.17019 22.8428C9.17019 22.8428 11.7194 22.2645 12.7979 20.3368C13.8764 18.5055 14.955 16.6742 14.955 16.6742L13.3862 15.8067Z" fill="#FFC66C"/>
<path d="M9.30699 22.8428L9.22142 22.582C9.13584 22.4081 8.53681 20.1472 9.47814 18.4081L11.5319 14.8428L14.955 16.8429L12.9012 20.4081C11.8742 22.2342 9.64929 22.7559 9.56372 22.7559L9.30699 22.8428ZM11.7887 15.7124L10.0772 18.7559C9.39257 19.9733 9.56372 21.4515 9.73487 22.0602C10.3339 21.8863 11.7031 21.2776 12.3877 20.1472L14.0992 17.1037L11.7887 15.7124Z" fill="black"/>
<path d="M11.6211 19.0022L18.2872 22.8428C18.2872 22.8428 19.9061 20.1263 21.6203 17.2223C23.3344 14.3184 17.9063 8.22954 17.9063 8.22954C17.9063 8.22954 9.90694 6.73074 8.28802 9.63467C6.57387 12.5386 4.95496 15.2552 4.95496 15.2552L11.6211 19.0022Z" fill="#58D6FF"/>
<path d="M18.2043 22.8428L4.95496 15.3375L8.28982 9.68634C10.0023 6.77248 17.5734 8.18526 17.8438 8.18526H18.024L18.1142 8.27356C18.2944 8.53846 23.2516 14.1896 21.6293 17.1034L18.2043 22.8428ZM5.85627 15.0726L17.9339 21.9599L20.9082 16.9268C22.1701 14.896 19.0155 10.481 17.5734 8.89165C15.4102 8.45016 10.0023 8.00866 8.83061 10.0395L5.85627 15.0726Z" fill="black"/>
<path d="M11.9932 18.5173L16.1254 20.8428C16.1254 20.8428 18.755 16.3777 21.4785 11.6335C24.202 6.98239 22.3237 0.84285 22.3237 0.84285C22.3237 0.84285 16.0315 2.2382 13.308 6.98238C10.5845 11.7266 7.95496 16.1917 7.95496 16.1917L11.9932 18.5173Z" fill="#E8E8E8"/>
<path d="M15.7361 21.8428L6.95496 16.7803L12.5258 7.21785C15.3585 2.4366 21.5903 0.9366 21.8735 0.84285H22.1568L22.2512 1.1241C22.3456 1.40535 24.2341 7.4991 21.4014 12.2803L15.7361 21.8428ZM7.89917 16.5928L15.5473 20.9991L20.7405 11.9991C23.0066 8.0616 21.968 3.09285 21.6847 1.6866C20.3628 2.0616 15.4529 3.65535 13.1868 7.59285L7.89917 16.5928Z" fill="black"/>
<path d="M14.955 22.1566L14.4095 21.8428L11.955 25.5291L12.5004 25.8428L14.955 22.1566Z" fill="black"/>
<path d="M11.955 25.1505L11.2626 24.8428L8.95496 27.5352L9.64726 27.8428L11.955 25.1505Z" fill="black"/>
<path d="M7.95496 20.2531L7.26265 19.8428L4.95496 23.4326L5.53188 23.8428L7.95496 20.2531Z" fill="black"/>
<path d="M17.4912 9.71931C17.9957 9.98225 18.5842 9.80695 18.8364 9.36873C19.0887 8.84285 18.9205 8.22933 18.5001 7.96639C17.9957 7.70345 17.3231 7.87874 17.0708 8.31697C16.8186 8.7552 16.9868 9.45637 17.4912 9.71931Z" fill="white"/>
<path d="M16.7291 9.64405C15.955 9.25399 15.7614 8.37636 16.1485 7.59624C16.5356 6.81613 17.4066 6.6211 18.1808 7.10867C18.955 7.49873 19.1485 8.37636 18.7614 9.15648C18.3743 9.83908 17.5033 10.0341 16.7291 9.64405ZM17.7937 7.59624C17.4066 7.40121 16.9227 7.49873 16.7291 7.88879C16.5356 8.27885 16.7291 8.76642 17.1162 8.96145C17.5033 9.15648 17.9872 9.05896 18.1808 8.6689C18.3743 8.27885 18.1808 7.88879 17.7937 7.59624Z" fill="black"/>
<path d="M14.4727 14.7193C14.9835 14.9822 15.5795 14.807 15.8349 14.3687C16.0904 13.8429 15.9201 13.2293 15.4944 12.9664C14.9835 12.7035 14.3876 12.8787 14.1321 13.317C13.7916 13.8428 13.9619 14.4564 14.4727 14.7193Z" fill="white"/>
<path d="M13.7291 15.644C12.955 15.254 12.7614 14.3764 13.1485 13.5962C13.5356 12.8161 14.4066 12.6211 15.1808 13.1087C15.955 13.4987 16.1485 14.3764 15.7614 15.1565C15.3743 15.8391 14.5033 16.0341 13.7291 15.644ZM14.8904 13.6938C14.5033 13.4987 14.0195 13.5962 13.8259 13.9863C13.6324 14.3764 13.7291 14.8639 14.1162 15.059C14.5033 15.254 14.9872 15.1565 15.1808 14.7664C15.3743 14.3764 15.1808 13.8888 14.8904 13.6938Z" fill="black"/>
</svg>
