<svg width="28" height="28" viewBox="0 0 28 28" fill="none" xmlns="http://www.w3.org/2000/svg">
<path d="M19.9579 5.95625C19.3448 5.95625 18.9157 6.50625 18.9157 7.125V12.7625C18.9157 12.9 18.7931 13.0375 18.6705 13.0375C18.5479 13.0375 18.4253 12.9 18.4253 12.7625V4.375C18.4253 3.61875 17.8736 3 17.1992 3C16.8927 3 16.5249 3.1375 16.2797 3.4125C16.0345 3.6875 15.9119 4.03125 15.9119 4.375V12.8313C15.9119 12.9688 15.7893 13.1062 15.6667 13.1062C15.5441 13.1062 15.4215 12.9688 15.4215 12.8313V4.5125C15.4215 3.6875 14.8084 3 14.0728 3C13.2146 3 12.7241 3.825 12.7241 4.58125V12.8313C12.7241 12.9688 12.6015 13.1062 12.4789 13.1062C12.3563 13.1062 12.2337 12.9688 12.2337 12.8313V6.09375C12.2337 5.3375 11.682 4.71875 11.0077 4.71875C10.2107 4.71875 9.78161 5.475 9.78161 6.1625V15.7875V16.8875H9.5977C9.5977 16.8875 9.5977 16.8875 9.5364 16.8875H9.4751C9.4751 16.8875 9.4751 16.8875 9.41379 16.8875L8.24904 15.65C7.3908 14.7562 6.04215 14.7563 5.18391 15.7188C4.9387 15.9937 4.9387 16.3375 5.18391 16.6125L9.5977 21.9062C11.3755 24.1063 13.1533 25 15.7893 25C18.6705 25 21 22.3188 21 19.0875V7.19375C21 6.64375 20.6322 5.95625 19.9579 5.95625Z" fill="white"/>
<path d="M16.0555 25C13.2826 25 11.3289 24.1333 9.50133 21.9333L4.96379 16.7333C4.64869 16.3333 4.64869 15.8 4.96379 15.4C5.97213 14.3333 7.54767 14.3333 8.55601 15.3333L9.62737 16.4V6.4C9.62737 5.53333 10.1946 4.66667 11.2029 4.66667C11.8331 4.66667 12.4003 5.06667 12.6524 5.66667V4.86667C12.6524 3.93333 13.2826 3 14.354 3C15.1102 3 15.7404 3.53333 15.9295 4.2C15.9925 3.93333 16.1186 3.66667 16.3076 3.46667C16.6227 3.2 17.0639 3 17.505 3C18.3873 3 19.0806 3.73333 19.0806 4.66667V6.66667C19.3327 6.2 19.7738 5.86667 20.341 5.86667C20.7191 5.86667 21.0342 6 21.2863 6.26667C21.5384 6.6 21.7275 7 21.7275 7.46667V19C21.7275 22.2667 19.1436 25 16.0555 25ZM6.79141 15.2667C6.28724 15.2667 5.78307 15.4667 5.40494 15.8667C5.2789 16 5.2789 16.1333 5.40494 16.2667L9.94248 21.4667C11.6441 23.5333 13.4717 24.3333 16.0555 24.3333C18.8285 24.3333 21.0972 21.9333 21.0972 18.9333V7.4C21.0972 7.13333 21.0342 6.93333 20.8452 6.73333C20.7191 6.6 20.5301 6.53333 20.341 6.53333C19.8998 6.53333 19.5847 6.86667 19.5847 7.33333V12.8C19.5847 13.1333 19.3327 13.4 19.0175 13.4C18.7024 13.4 18.4504 13.1333 18.4504 12.8V4.66667C18.4504 4.13333 18.0092 3.66667 17.505 3.66667C17.2529 3.66667 17.0009 3.8 16.8118 3.93333C16.6227 4.13333 16.5597 4.4 16.5597 4.66667V12.8667C16.5597 13.2 16.3076 13.4667 15.9925 13.4667C15.6774 13.4667 15.4253 13.2 15.4253 12.8667V4.8C15.4253 4.2 14.9212 3.66667 14.354 3.66667C13.7238 3.66667 13.2826 4.26667 13.2826 4.86667V12.8667C13.2826 13.2 13.0305 13.4667 12.7154 13.4667C12.4003 13.4667 12.1482 13.2 12.1482 12.8667V6.33333C12.1482 5.8 11.7071 5.33333 11.2029 5.33333C10.6357 5.33333 10.2576 5.86667 10.2576 6.4V17.2H9.62737C9.56435 17.2 9.50133 17.2 9.50133 17.1333C9.43831 17.0667 9.37528 17.0667 9.37528 17.0667L8.17788 15.8667C7.73673 15.4667 7.29558 15.2667 6.79141 15.2667Z" fill="black"/>
</svg>
