<svg width="28" height="34" viewBox="0 0 28 34" fill="none" xmlns="http://www.w3.org/2000/svg">
<path d="M12.8862 15.8067L11.2194 14.8428C11.2194 14.8428 10.1409 16.6742 9.06235 18.5055C7.98383 20.3368 8.67016 22.8428 8.67016 22.8428C8.67016 22.8428 11.2194 22.2645 12.2979 20.3368C13.3764 18.5055 14.4549 16.6742 14.4549 16.6742L12.8862 15.8067Z" fill="#FFC66C"/>
<path d="M8.80696 22.8428L8.72138 22.582C8.63581 22.4081 8.03678 20.1472 8.97811 18.4081L11.0319 14.8428L14.4549 16.8429L12.4011 20.4081C11.3742 22.2342 9.14926 22.7559 9.06369 22.7559L8.80696 22.8428ZM11.2886 15.7124L9.57714 18.7559C8.89254 19.9733 9.06369 21.4515 9.23484 22.0602C9.83386 21.8863 11.2031 21.2776 11.8877 20.1472L13.5992 17.1037L11.2886 15.7124Z" fill="black"/>
<path d="M11.1211 19.0022L17.7872 22.8428C17.7872 22.8428 19.4061 20.1263 21.1202 17.2223C22.8344 14.3184 17.4063 8.22954 17.4063 8.22954C17.4063 8.22954 9.40691 6.73074 7.78799 9.63467C6.07384 12.5386 4.45493 15.2552 4.45493 15.2552L11.1211 19.0022Z" fill="#58D6FF"/>
<path d="M17.7043 22.8428L4.45493 15.3375L7.78979 9.68634C9.50229 6.77248 17.0733 8.18526 17.3437 8.18526H17.524L17.6141 8.27356C17.7944 8.53846 22.7516 14.1896 21.1292 17.1034L17.7043 22.8428ZM5.35624 15.0726L17.4339 21.9599L20.4082 16.9268C21.67 14.896 18.5154 10.481 17.0733 8.89165C14.9102 8.45016 9.50229 8.00866 8.33058 10.0395L5.35624 15.0726Z" fill="black"/>
<path d="M11.4932 18.5173L15.6254 20.8428C15.6254 20.8428 18.255 16.3777 20.9785 11.6335C23.702 6.98239 21.8237 0.84285 21.8237 0.84285C21.8237 0.84285 15.5315 2.2382 12.808 6.98238C10.0845 11.7266 7.45493 16.1917 7.45493 16.1917L11.4932 18.5173Z" fill="white"/>
<path d="M15.2361 21.8428L6.45493 16.7803L12.0258 7.21785C14.8584 2.4366 21.0902 0.9366 21.3735 0.84285H21.6568L21.7512 1.1241C21.8456 1.40535 23.734 7.4991 20.9014 12.2803L15.2361 21.8428ZM7.39914 16.5928L15.0473 20.9991L20.2404 11.9991C22.5066 8.0616 21.4679 3.09285 21.1847 1.6866C19.8628 2.0616 14.9529 3.65535 12.6867 7.59285L7.39914 16.5928Z" fill="black"/>
<path d="M14.4549 22.1566L13.9095 21.8428L11.4549 25.5291L12.0004 25.8428L14.4549 22.1566Z" fill="black"/>
<path d="M11.4549 25.1505L10.7626 24.8428L8.45493 27.5352L9.14723 27.8428L11.4549 25.1505Z" fill="black"/>
<path d="M7.45493 20.2531L6.76262 19.8428L4.45493 23.4326L5.03185 23.8428L7.45493 20.2531Z" fill="black"/>
<path d="M16.9912 9.71931C17.4957 9.98225 18.0842 9.80695 18.3364 9.36873C18.5886 8.84285 18.4205 8.22933 18.0001 7.96639C17.4957 7.70345 16.823 7.87874 16.5708 8.31697C16.3186 8.7552 16.4867 9.45637 16.9912 9.71931Z" fill="white"/>
<path d="M16.2291 9.64405C15.4549 9.25399 15.2614 8.37636 15.6485 7.59624C16.0356 6.81613 16.9065 6.6211 17.6807 7.10867C18.4549 7.49873 18.6485 8.37636 18.2614 9.15648C17.8743 9.83908 17.0033 10.0341 16.2291 9.64405ZM17.2936 7.59624C16.9065 7.40121 16.4227 7.49873 16.2291 7.88879C16.0356 8.27885 16.2291 8.76642 16.6162 8.96145C17.0033 9.15648 17.4872 9.05896 17.6807 8.6689C17.8743 8.27885 17.6807 7.88879 17.2936 7.59624Z" fill="black"/>
<path d="M13.9727 14.7193C14.4835 14.9822 15.0795 14.807 15.3349 14.3687C15.5903 13.8429 15.4201 13.2293 14.9944 12.9664C14.4835 12.7035 13.8875 12.8787 13.6321 13.317C13.2915 13.8428 13.4618 14.4564 13.9727 14.7193Z" fill="white"/>
<path d="M13.2291 15.644C12.4549 15.254 12.2614 14.3764 12.6485 13.5962C13.0356 12.8161 13.9065 12.6211 14.6807 13.1087C15.4549 13.4987 15.6485 14.3764 15.2614 15.1565C14.8743 15.8391 14.0033 16.0341 13.2291 15.644ZM14.3904 13.6938C14.0033 13.4987 13.5194 13.5962 13.3259 13.9863C13.1323 14.3764 13.2291 14.8639 13.6162 15.059C14.0033 15.254 14.4872 15.1565 14.6807 14.7664C14.8743 14.3764 14.6807 13.8888 14.3904 13.6938Z" fill="black"/>
<path d="M16 30L14 32L12 30" stroke="white"/>
</svg>
