<svg width="17" height="20" viewBox="0 0 17 20" fill="none" xmlns="http://www.w3.org/2000/svg">
<path d="M17 15.5204C17 14.6617 15.83 13.9371 14 13.2859C11.93 12.5344 11 11.6928 11 11.1918C11 10.9613 11.26 10.5606 11.54 10.1397C12.16 9.18789 13 7.89538 13 5.86141C13 2.24437 10.66 0 8.5 0C6.34 0 4 2.23435 4 5.86141C4 7.9054 4.84 9.18789 5.46 10.1297C5.74 10.5505 6 10.9513 6 11.1818C6 11.6828 5.07 12.5244 3 13.2759C1.17 13.9371 0.386364 15.0697 0 15.5204L2.31818 17.5102C2.31818 17.5102 5.72435 19.5 9.65909 19.5C12.3433 19.5 16.2273 16.3163 16.2273 16.3163L17 15.5204Z" fill="white"/>
</svg>
