<svg width="30" height="30" viewBox="1 3 22 22" fill="none" xmlns="http://www.w3.org/2000/svg">
<path d="M15.5 3.5H1.5V17.5H15.5V3.5Z" fill="#C4C4C4"/>
<path d="M16 18H1V3H16V18ZM2 17H15V4H2V17Z" fill="black"/>
<path d="M14.5 24.5C18.9183 24.5 22.5 20.9183 22.5 16.5C22.5 12.0817 18.9183 8.5 14.5 8.5C10.0817 8.5 6.5 12.0817 6.5 16.5C6.5 20.9183 10.0817 24.5 14.5 24.5Z" fill="#C4C4C4"/>
<path d="M14.5 25C9.8 25 6 21.2 6 16.5C6 11.8 9.8 8 14.5 8C19.2 8 23 11.8 23 16.5C23 21.2 19.2 25 14.5 25ZM14.5 9C10.4 9 7 12.4 7 16.5C7 20.6 10.4 24 14.5 24C18.6 24 22 20.6 22 16.5C22 12.4 18.6 9 14.5 9Z" fill="black"/>
<path d="M15.5 8.60001V17.5H6.60001" fill="#C4C4C4"/>
<path d="M16 18H6.60001V17H15V8.60001H16V18Z" fill="black"/>
</svg>
