<svg width="28" height="34" viewBox="0 0 28 34" fill="none" xmlns="http://www.w3.org/2000/svg">
<path d="M13.7274 19.2093C6.82822 19.2093 1.40186 16.8062 1.40186 13.7829C1.40186 12.7752 2.02202 11.7674 3.18481 10.9922L3.64993 11.6124C3.02977 12.0775 2.25458 12.8527 2.25458 13.7829C2.25458 16.2636 7.5259 18.4341 13.805 18.4341C20.084 18.4341 25.3554 16.3411 25.3554 13.7829C25.3554 12.4651 23.8825 11.1473 21.3244 10.2946L21.5569 9.59689C24.4251 10.6046 26.1306 12.155 26.1306 13.7829C25.9755 16.8062 20.6267 19.2093 13.7274 19.2093Z" fill="black"/>
<path d="M5.89801 9.98447C4.50266 10.1395 2.64219 10.217 1.32436 9.90695L3.10731 11.4573L3.41739 13.7829C3.8825 12.5426 4.96778 11.0697 5.89801 9.98447Z" fill="black"/>
<path d="M18.4562 14.4031C18.4562 7.50389 16.0531 2.07753 13.0298 2.07753C12.022 2.07753 11.0143 2.69769 10.2391 3.86048L10.8593 4.32559C11.3244 3.70544 12.0996 2.93024 13.0298 2.93024C15.5104 2.93024 17.681 8.20156 17.681 14.4806C17.681 20.7597 15.5879 26.031 13.0298 26.031C11.712 26.031 10.3941 24.5582 9.54143 22L8.84375 22.2326C9.8515 25.1008 11.4019 26.8062 13.0298 26.8062C16.1306 26.7287 18.4562 21.3023 18.4562 14.4031Z" fill="black"/>
<path d="M9.30892 6.57365C9.46396 5.1783 9.54148 3.31783 9.2314 2L10.7818 3.78295L13.1074 4.09302C11.8671 4.63566 10.3167 5.64341 9.30892 6.57365Z" fill="black"/>
<path d="M14.1926 14.3256C14.6207 14.3256 14.9678 13.9785 14.9678 13.5504C14.9678 13.1223 14.6207 12.7752 14.1926 12.7752C13.7644 12.7752 13.4174 13.1223 13.4174 13.5504C13.4174 13.9785 13.7644 14.3256 14.1926 14.3256Z" fill="black"/>
<path d="M16 30L14 32L12 30" stroke="white"/>
</svg>
