<svg width="29" height="28" viewBox="0 0 29 28" fill="none" xmlns="http://www.w3.org/2000/svg">
<path d="M14.2275 19.2093C7.32828 19.2093 1.90192 16.8062 1.90192 13.7829C1.90192 12.7752 2.52207 11.7674 3.68486 10.9922L4.14998 11.6124C3.52982 12.0775 2.75463 12.8527 2.75463 13.7829C2.75463 16.2636 8.02595 18.4341 14.305 18.4341C20.5841 18.4341 25.8554 16.3411 25.8554 13.7829C25.8554 12.4651 24.3825 11.1473 21.8244 10.2946L22.057 9.59689C24.9252 10.6046 26.6306 12.155 26.6306 13.7829C26.4756 16.8062 21.1267 19.2093 14.2275 19.2093Z" fill="black"/>
<path d="M6.39805 9.98447C5.0027 10.1395 3.14223 10.217 1.8244 9.90695L3.60735 11.4573L3.91743 13.7829C4.38254 12.5426 5.46781 11.0697 6.39805 9.98447Z" fill="black"/>
<path d="M18.9562 14.4031C18.9562 7.50389 16.5531 2.07753 13.5299 2.07753C12.5221 2.07753 11.5144 2.69769 10.7392 3.86048L11.3593 4.32559C11.8244 3.70544 12.5996 2.93024 13.5299 2.93024C16.0105 2.93024 18.181 8.20156 18.181 14.4806C18.181 20.7597 16.088 26.031 13.5299 26.031C12.212 26.031 10.8942 24.5582 10.0415 22L9.34381 22.2326C10.3516 25.1008 11.902 26.8062 13.5299 26.8062C16.6306 26.7287 18.9562 21.3023 18.9562 14.4031Z" fill="black"/>
<path d="M9.80897 6.57365C9.964 5.1783 10.0415 3.31783 9.73145 2L11.2818 3.78295L13.6074 4.09302C12.3671 4.63566 10.8167 5.64341 9.80897 6.57365Z" fill="black"/>
<path d="M14.6926 14.3256C15.1207 14.3256 15.4678 13.9785 15.4678 13.5504C15.4678 13.1223 15.1207 12.7752 14.6926 12.7752C14.2645 12.7752 13.9174 13.1223 13.9174 13.5504C13.9174 13.9785 14.2645 14.3256 14.6926 14.3256Z" fill="black"/>
</svg>
