<svg width="28" height="28" viewBox="0 0 28 28" fill="none" xmlns="http://www.w3.org/2000/svg">
<path d="M16.899 16.3054H2.15308V22.1702H16.899V16.3054Z" fill="white"/>
<path d="M16.5638 16.7243V21.7513H2.57197V16.7243H16.5638ZM17.4016 15.8864H1.73413V22.5891H17.3179V15.8864H17.4016Z" fill="black"/>
<path d="M16.9408 16.7243H1.35712L11.2436 6H27.5813L16.9408 16.7243Z" fill="white"/>
<path d="M25.7381 6.83783L16.6057 15.8864H2.78144L11.5787 6.83783H25.7381ZM26.8273 6H11.2436L1.35712 15.8864V16.7243H16.9408L26.8273 6.83783V6Z" fill="black"/>
<path d="M17.4017 22.5891L16.899 21.6675L26.2828 12.5351L27.2044 12.7027L17.4017 22.5891Z" fill="black"/>
<path d="M27.2043 6.08379H26.2827V12.7027H27.2043V6.08379Z" fill="black"/>
<path d="M2.40448 15.2162V8.34593H25.5287V20.4107H19.4963L21.2558 18.6513V12.7027L4.91798 12.7865L2.40448 15.2162Z" fill="#249BF1"/>
</svg>
