<svg width="28" height="28" viewBox="0 0 28 28" fill="none" xmlns="http://www.w3.org/2000/svg">
<rect x="2.27734" y="4" width="19.32" height="10.92" fill="#249BF1"/>
<mask id="path-2-outside-1_240_80235" maskUnits="userSpaceOnUse" x="9.52618" y="9.53081" width="17" height="17" fill="black">
<rect fill="white" x="9.52618" y="9.53081" width="17" height="17"/>
<path fill-rule="evenodd" clip-rule="evenodd" d="M24.2947 13.6521L22.1734 11.5308L17.9104 15.7937L13.6475 11.5308L11.5262 13.6521L15.7891 17.915L11.5262 22.178L13.6475 24.2993L17.9104 20.0364L22.1734 24.2993L24.2947 22.178L20.0318 17.915L24.2947 13.6521Z"/>
</mask>
<path fill-rule="evenodd" clip-rule="evenodd" d="M24.2947 13.6521L22.1734 11.5308L17.9104 15.7937L13.6475 11.5308L11.5262 13.6521L15.7891 17.915L11.5262 22.178L13.6475 24.2993L17.9104 20.0364L22.1734 24.2993L24.2947 22.178L20.0318 17.915L24.2947 13.6521Z" fill="black"/>
<path d="M22.1734 11.5308L22.8805 10.8237L22.1734 10.1166L21.4662 10.8237L22.1734 11.5308ZM24.2947 13.6521L25.0018 14.3592L25.7089 13.6521L25.0018 12.945L24.2947 13.6521ZM17.9104 15.7937L17.2033 16.5008L17.9104 17.2079L18.6175 16.5008L17.9104 15.7937ZM13.6475 11.5308L14.3546 10.8237L13.6475 10.1166L12.9404 10.8237L13.6475 11.5308ZM11.5262 13.6521L10.8191 12.945L10.112 13.6521L10.8191 14.3592L11.5262 13.6521ZM15.7891 17.915L16.4962 18.6222L17.2033 17.915L16.4962 17.2079L15.7891 17.915ZM11.5262 22.178L10.8191 21.4709L10.112 22.178L10.8191 22.8851L11.5262 22.178ZM13.6475 24.2993L12.9404 25.0064L13.6475 25.7135L14.3546 25.0064L13.6475 24.2993ZM17.9104 20.0364L18.6175 19.3293L17.9104 18.6222L17.2033 19.3293L17.9104 20.0364ZM22.1734 24.2993L21.4663 25.0064L22.1734 25.7135L22.8805 25.0064L22.1734 24.2993ZM24.2947 22.178L25.0018 22.8851L25.7089 22.178L25.0018 21.4709L24.2947 22.178ZM20.0318 17.915L19.3246 17.2079L18.6175 17.915L19.3246 18.6222L20.0318 17.915ZM21.4662 12.2379L23.5876 14.3592L25.0018 12.945L22.8805 10.8237L21.4662 12.2379ZM18.6175 16.5008L22.8805 12.2379L21.4662 10.8237L17.2033 15.0866L18.6175 16.5008ZM12.9404 12.2379L17.2033 16.5008L18.6175 15.0866L14.3546 10.8237L12.9404 12.2379ZM12.2333 14.3592L14.3546 12.2379L12.9404 10.8237L10.8191 12.945L12.2333 14.3592ZM16.4962 17.2079L12.2333 12.945L10.8191 14.3592L15.082 18.6222L16.4962 17.2079ZM12.2333 22.8851L16.4962 18.6222L15.082 17.2079L10.8191 21.4709L12.2333 22.8851ZM14.3546 23.5922L12.2333 21.4709L10.8191 22.8851L12.9404 25.0064L14.3546 23.5922ZM17.2033 19.3293L12.9404 23.5922L14.3546 25.0064L18.6175 20.7435L17.2033 19.3293ZM22.8805 23.5922L18.6175 19.3293L17.2033 20.7435L21.4663 25.0064L22.8805 23.5922ZM23.5876 21.4709L21.4663 23.5922L22.8805 25.0064L25.0018 22.8851L23.5876 21.4709ZM19.3246 18.6222L23.5876 22.8851L25.0018 21.4709L20.7389 17.2079L19.3246 18.6222ZM23.5876 12.945L19.3246 17.2079L20.7389 18.6222L25.0018 14.3592L23.5876 12.945Z" fill="white" mask="url(#path-2-outside-1_240_80235)"/>
</svg>
