<svg width="28" height="28" viewBox="0 0 28 28" fill="none" xmlns="http://www.w3.org/2000/svg">
<path d="M18.8386 4.00002H8.4361V11.0171H18.8386V4.00002Z" fill="white"/>
<path d="M18.223 4.61555V10.4015H9.05163V4.61555H18.223ZM18.8386 4.00002H8.4361V11.0171H18.8386V4.00002Z" fill="black"/>
<path fill-rule="evenodd" clip-rule="evenodd" d="M14.653 4.36932V9.47822C14.653 9.60132 14.7145 9.66288 14.7761 9.72443C14.8376 9.78598 14.8992 9.84754 15.0223 9.84754H16.8689C16.9304 9.84754 17.0535 9.78598 17.1151 9.72443C17.1766 9.66288 17.2382 9.60132 17.2382 9.47822V4.36932C17.2382 4.24621 17.1766 4.18466 17.1151 4.12311C17.0535 4.06155 16.992 4 16.8689 4H15.0223C14.9607 4 14.8376 4.06155 14.7761 4.12311C14.7145 4.18466 14.653 4.24621 14.653 4.36932Z" fill="#249BF1"/>
<path d="M16.5611 4.61554V9.17046H15.3301V4.61554H16.5611ZM16.8073 4.00001H14.9607C14.8992 4.00001 14.7761 4.06156 14.7145 4.12311C14.653 4.18467 14.5914 4.24622 14.5914 4.36933V9.47823C14.5914 9.60133 14.653 9.66289 14.7145 9.72444C14.7761 9.78599 14.8376 9.84754 14.9607 9.84754H16.8073C16.8689 9.84754 16.992 9.78599 17.0536 9.72444C17.1151 9.66289 17.1767 9.60133 17.1767 9.47823V4.36933C17.1767 4.24622 17.1151 4.18467 17.0536 4.12311C16.992 4.06156 16.9304 4.00001 16.8073 4.00001Z" fill="black"/>
<path fill-rule="evenodd" clip-rule="evenodd" d="M4.55818 23.697H22.6548C23.0856 23.697 23.455 23.3277 23.455 22.8968V6.70835C23.455 6.58524 23.3934 6.46214 23.3319 6.33903L21.1775 4.18467C21.0544 4.06157 20.9313 4.00002 20.7466 4.00002H18.223V10.4631H8.99V4.00002H4.55818C4.12731 4.00002 3.758 4.36933 3.758 4.8002V22.8968C3.758 23.3277 4.12731 23.697 4.55818 23.697Z" fill="#249BF1"/>
<path d="M20.7466 4.61555L22.8394 6.70835V22.8968C22.8394 23.0199 22.7163 23.0815 22.6548 23.0815H4.55818C4.43508 23.0815 4.37353 22.9583 4.37353 22.8968V4.8002C4.37353 4.6771 4.49663 4.61555 4.55818 4.61555H8.37447V10.4631V11.0786H8.99H18.223H18.8385V10.4631V4.61555H20.7466ZM20.7466 4.00002H18.223V10.4631H8.99V4.00002H4.55818C4.12731 4.00002 3.758 4.36933 3.758 4.8002V22.8968C3.758 23.3277 4.12731 23.697 4.55818 23.697H22.6548C23.0856 23.697 23.455 23.3277 23.455 22.8968V6.70835C23.455 6.58524 23.3934 6.46214 23.3319 6.33903L21.1775 4.18467C21.0544 4.06157 20.9313 4.00002 20.7466 4.00002Z" fill="black"/>
<path fill-rule="evenodd" clip-rule="evenodd" d="M8.06682 22.7737H19.2079C19.6388 22.7737 20.0697 22.4044 20.0697 21.9119V15.1411C20.0697 14.6487 19.7003 14.2794 19.2079 14.2794H8.06682C7.63595 14.2794 7.20508 14.6487 7.20508 15.1411V21.9119C7.20508 22.3428 7.63595 22.7737 8.06682 22.7737Z" fill="white"/>
<path d="M19.1463 14.8333C19.2694 14.8333 19.3925 14.9565 19.3925 15.0796V21.8504C19.3925 21.9735 19.2694 22.0966 19.1463 22.0966H8.06676C7.94365 22.0966 7.82055 21.9735 7.82055 21.8504V15.0796C7.82055 14.9565 7.94365 14.8333 8.06676 14.8333H19.1463ZM19.1463 14.2178H8.06676C7.63589 14.2178 7.20502 14.5871 7.20502 15.0796V21.8504C7.20502 22.3428 7.57434 22.7121 8.06676 22.7121H19.2079C19.6387 22.7121 20.0696 22.3428 20.0696 21.8504V15.0796C20.008 14.6487 19.6387 14.2178 19.1463 14.2178Z" fill="black"/>
</svg>
