<svg width="28" height="28" viewBox="0 0 28 28" fill="none" xmlns="http://www.w3.org/2000/svg">
<path d="M18.8385 4.00001H8.43601V11.0171H18.8385V4.00001Z" fill="white"/>
<path d="M18.2229 4.61554V10.4015H9.05154V4.61554H18.2229ZM18.8385 4.00001H8.43601V11.0171H18.8385V4.00001Z" fill="black"/>
<path fill-rule="evenodd" clip-rule="evenodd" d="M14.6528 4.36932V9.47822C14.6528 9.60133 14.7144 9.66288 14.7759 9.72443C14.8375 9.78599 14.899 9.84754 15.0221 9.84754H16.8687C16.9303 9.84754 17.0534 9.78599 17.115 9.72443C17.1765 9.66288 17.2381 9.60133 17.2381 9.47822V4.36932C17.2381 4.24622 17.1765 4.18466 17.115 4.12311C17.0534 4.06156 16.9918 4 16.8687 4H15.0221C14.9606 4 14.8375 4.06156 14.7759 4.12311C14.7144 4.18466 14.6528 4.24622 14.6528 4.36932Z" fill="#249BF1"/>
<path d="M16.561 4.61554V9.17046H15.33V4.61554H16.561ZM16.8072 4.00001H14.9607C14.8991 4.00001 14.776 4.06156 14.7144 4.12312C14.6529 4.18467 14.5913 4.24622 14.5913 4.36933V9.47823C14.5913 9.60134 14.6529 9.66289 14.7144 9.72444C14.776 9.786 14.8376 9.84755 14.9607 9.84755H16.8072C16.8688 9.84755 16.9919 9.786 17.0535 9.72444C17.115 9.66289 17.1766 9.60134 17.1766 9.47823V4.36933C17.1766 4.24622 17.115 4.18467 17.0535 4.12312C16.9919 4.06156 16.9304 4.00001 16.8072 4.00001Z" fill="black"/>
<path fill-rule="evenodd" clip-rule="evenodd" d="M4.55815 23.697H22.6547C23.0856 23.697 23.4549 23.3277 23.4549 22.8968V6.70834C23.4549 6.58524 23.3934 6.46213 23.3318 6.33903L21.1775 4.18467C21.0544 4.06156 20.9313 4.00001 20.7466 4.00001H18.2229V10.4631H8.98996V4.00001H4.55815C4.12728 4.00001 3.75796 4.36933 3.75796 4.8002V22.8968C3.75796 23.3277 4.12728 23.697 4.55815 23.697Z" fill="#249BF1"/>
<path d="M20.7466 4.61554L22.8394 6.70834V22.8968C22.8394 23.0199 22.7163 23.0814 22.6547 23.0814H4.55815C4.43504 23.0814 4.37349 22.9583 4.37349 22.8968V4.8002C4.37349 4.67709 4.49659 4.61554 4.55815 4.61554H8.37443V10.4631V11.0786H8.98996H18.2229H18.8384V10.4631V4.61554H20.7466ZM20.7466 4.00001H18.2229V10.4631H8.98996V4.00001H4.55815C4.12728 4.00001 3.75796 4.36933 3.75796 4.8002V22.8968C3.75796 23.3277 4.12728 23.697 4.55815 23.697H22.6547C23.0856 23.697 23.4549 23.3277 23.4549 22.8968V6.70834C23.4549 6.58524 23.3934 6.46213 23.3318 6.33903L21.1775 4.18467C21.0544 4.06156 20.9313 4.00001 20.7466 4.00001Z" fill="black"/>
<path fill-rule="evenodd" clip-rule="evenodd" d="M8.06676 22.7737H19.2079C19.6387 22.7737 20.0696 22.4044 20.0696 21.9119V15.1411C20.0696 14.6487 19.7003 14.2794 19.2079 14.2794H8.06676C7.63589 14.2794 7.20502 14.6487 7.20502 15.1411V21.9119C7.20502 22.3428 7.63589 22.7737 8.06676 22.7737Z" fill="white"/>
<path d="M19.1463 14.8333C19.2694 14.8333 19.3925 14.9565 19.3925 15.0796V21.8504C19.3925 21.9735 19.2694 22.0966 19.1463 22.0966H8.06671C7.94361 22.0966 7.8205 21.9735 7.8205 21.8504V15.0796C7.8205 14.9565 7.94361 14.8333 8.06671 14.8333H19.1463ZM19.1463 14.2178H8.06671C7.63584 14.2178 7.20497 14.5871 7.20497 15.0796V21.8504C7.20497 22.3428 7.57429 22.7121 8.06671 22.7121H19.2078C19.6387 22.7121 20.0696 22.3428 20.0696 21.8504V15.0796C20.008 14.6487 19.6387 14.2178 19.1463 14.2178Z" fill="black"/>
</svg>
