<svg width="28" height="34" viewBox="0 0 28 34" fill="none" xmlns="http://www.w3.org/2000/svg">
<path d="M13.7275 19.2093C6.82828 19.2093 1.40192 16.8062 1.40192 13.7829C1.40192 12.7752 2.02207 11.7674 3.18486 10.9922L3.64998 11.6124C3.02982 12.0775 2.25463 12.8527 2.25463 13.7829C2.25463 16.2636 7.52595 18.4341 13.805 18.4341C20.0841 18.4341 25.3554 16.3411 25.3554 13.7829C25.3554 12.4651 23.8825 11.1473 21.3244 10.2946L21.557 9.59689C24.4252 10.6046 26.1306 12.155 26.1306 13.7829C25.9756 16.8062 20.6267 19.2093 13.7275 19.2093Z" fill="black"/>
<path d="M5.89805 9.98448C4.5027 10.1395 2.64223 10.217 1.3244 9.90696L3.10735 11.4573L3.41743 13.7829C3.88254 12.5426 4.96781 11.0698 5.89805 9.98448Z" fill="black"/>
<path d="M18.4562 14.4031C18.4562 7.50388 16.0531 2.07752 13.0299 2.07752C12.0221 2.07752 11.0144 2.69768 10.2392 3.86047L10.8593 4.32559C11.3244 3.70543 12.0996 2.93024 13.0299 2.93024C15.5105 2.93024 17.681 8.20156 17.681 14.4806C17.681 20.7597 15.588 26.031 13.0299 26.031C11.712 26.031 10.3942 24.5582 9.54149 22L8.84381 22.2326C9.85156 25.1008 11.402 26.8062 13.0299 26.8062C16.1306 26.7287 18.4562 21.3023 18.4562 14.4031Z" fill="black"/>
<path d="M9.30897 6.57365C9.464 5.1783 9.54152 3.31783 9.23145 2L10.7818 3.78295L13.1074 4.09302C11.8671 4.63566 10.3167 5.64341 9.30897 6.57365Z" fill="black"/>
<path d="M14.1926 14.3256C14.6207 14.3256 14.9678 13.9785 14.9678 13.5504C14.9678 13.1223 14.6207 12.7752 14.1926 12.7752C13.7645 12.7752 13.4174 13.1223 13.4174 13.5504C13.4174 13.9785 13.7645 14.3256 14.1926 14.3256Z" fill="black"/>
<path d="M16.0001 30L14.0001 32L12.0001 30" stroke="#BEBEBE"/>
</svg>
