<svg width="28" height="28" viewBox="0 0 28 28" fill="none" xmlns="http://www.w3.org/2000/svg">
<path d="M19.9579 5.95625C19.3449 5.95625 18.9158 6.50625 18.9158 7.125V12.7625C18.9158 12.9 18.7932 13.0375 18.6706 13.0375C18.548 13.0375 18.4253 12.9 18.4253 12.7625V4.375C18.4253 3.61875 17.8736 3 17.1993 3C16.8928 3 16.525 3.1375 16.2798 3.4125C16.0345 3.6875 15.9119 4.03125 15.9119 4.375V12.8313C15.9119 12.9688 15.7893 13.1062 15.6667 13.1062C15.5441 13.1062 15.4215 12.9688 15.4215 12.8313V4.5125C15.4215 3.6875 14.8085 3 14.0729 3C13.2146 3 12.7242 3.825 12.7242 4.58125V12.8313C12.7242 12.9688 12.6016 13.1062 12.479 13.1062C12.3564 13.1062 12.2338 12.9688 12.2338 12.8313V6.09375C12.2338 5.3375 11.6821 4.71875 11.0077 4.71875C10.2108 4.71875 9.78167 5.475 9.78167 6.1625V15.7875V16.8875H9.59776C9.59776 16.8875 9.59776 16.8875 9.53646 16.8875H9.47516C9.47516 16.8875 9.47516 16.8875 9.41385 16.8875L8.2491 15.65C7.39087 14.7562 6.04221 14.7563 5.18397 15.7188C4.93876 15.9937 4.93876 16.3375 5.18397 16.6125L9.59776 21.9062C11.3755 24.1063 13.1533 25 15.7893 25C18.6706 25 21.0001 22.3188 21.0001 19.0875V7.19375C21.0001 6.64375 20.6322 5.95625 19.9579 5.95625Z" fill="white"/>
<path d="M16.0556 25C13.2827 25 11.329 24.1333 9.5014 21.9333L4.96387 16.7333C4.64876 16.3333 4.64876 15.8 4.96387 15.4C5.97221 14.3333 7.54774 14.3333 8.55608 15.3333L9.62745 16.4V6.4C9.62745 5.53333 10.1946 4.66667 11.203 4.66667C11.8332 4.66667 12.4004 5.06667 12.6525 5.66667V4.86667C12.6525 3.93333 13.2827 3 14.354 3C15.1103 3 15.7405 3.53333 15.9296 4.2C15.9926 3.93333 16.1186 3.66667 16.3077 3.46667C16.6228 3.2 17.064 3 17.5051 3C18.3874 3 19.0806 3.73333 19.0806 4.66667V6.66667C19.3327 6.2 19.7739 5.86667 20.3411 5.86667C20.7192 5.86667 21.0343 6 21.2864 6.26667C21.5385 6.6 21.7275 7 21.7275 7.46667V19C21.7275 22.2667 19.1437 25 16.0556 25ZM6.79149 15.2667C6.28732 15.2667 5.78315 15.4667 5.40502 15.8667C5.27898 16 5.27898 16.1333 5.40502 16.2667L9.94255 21.4667C11.6441 23.5333 13.4717 24.3333 16.0556 24.3333C18.8286 24.3333 21.0973 21.9333 21.0973 18.9333V7.4C21.0973 7.13333 21.0343 6.93333 20.8452 6.73333C20.7192 6.6 20.5301 6.53333 20.3411 6.53333C19.8999 6.53333 19.5848 6.86667 19.5848 7.33333V12.8C19.5848 13.1333 19.3327 13.4 19.0176 13.4C18.7025 13.4 18.4504 13.1333 18.4504 12.8V4.66667C18.4504 4.13333 18.0093 3.66667 17.5051 3.66667C17.253 3.66667 17.0009 3.8 16.8119 3.93333C16.6228 4.13333 16.5598 4.4 16.5598 4.66667V12.8667C16.5598 13.2 16.3077 13.4667 15.9926 13.4667C15.6775 13.4667 15.4254 13.2 15.4254 12.8667V4.8C15.4254 4.2 14.9212 3.66667 14.354 3.66667C13.7238 3.66667 13.2827 4.26667 13.2827 4.86667V12.8667C13.2827 13.2 13.0306 13.4667 12.7155 13.4667C12.4004 13.4667 12.1483 13.2 12.1483 12.8667V6.33333C12.1483 5.8 11.7071 5.33333 11.203 5.33333C10.6358 5.33333 10.2577 5.86667 10.2577 6.4V17.2H9.62745C9.56442 17.2 9.5014 17.2 9.5014 17.1333C9.43838 17.0667 9.37536 17.0667 9.37536 17.0667L8.17796 15.8667C7.73681 15.4667 7.29566 15.2667 6.79149 15.2667Z" fill="black"/>
</svg>
