<svg width="28" height="28" viewBox="0 0 28 28" fill="none" xmlns="http://www.w3.org/2000/svg">
<path d="M17.3439 2.73944L17.0153 2.57512L16.851 2.90376L7.32038 19.2537L7.23822 19.3358V19.418L7.40254 24.8406V25.4978L7.97766 25.1692L12.743 22.6222L12.8251 22.5401H12.9894L22.4379 6.19017L22.6022 5.86153L22.2736 5.69721L17.3439 2.73944Z" fill="#C4C4C4"/>
<path d="M7.07387 26.2373L6.82739 19.2537L6.90955 19.0893L16.7688 2L23.1773 5.69721L13.2359 22.9509L7.07387 26.2373ZM7.649 19.5001L7.81332 24.9227L12.5786 22.3758L22.1092 6.02586L17.0974 3.15024L7.649 19.5001Z" fill="black"/>
<path d="M7.81329 22.1293L10.2781 23.526L7.89545 24.7584L7.81329 22.1293Z" fill="black"/>
<path d="M16.1834 4.77849L15.2385 6.41496L20.2191 9.29057L21.1639 7.6541L16.1834 4.77849Z" fill="white"/>
</svg>
