<svg width="28" height="28" viewBox="0 0 28 28" fill="none" xmlns="http://www.w3.org/2000/svg">
<path d="M23.9291 12.344C23.8582 12.344 22.8653 12.344 21.6596 12.344C20.454 12.344 20.1703 11.6702 21.0213 10.8617C21.8724 10.0532 22.5816 9.31206 22.6525 9.31206V9.24468C22.6525 9.24468 21.9433 8.57092 21.0923 7.76241C20.2412 6.9539 19.532 6.28014 19.532 6.28014H19.4611C19.4611 6.28014 18.6809 7.02128 17.8298 7.82979C16.9788 8.6383 16.2696 8.36879 16.2696 7.2234C16.2696 6.07801 16.2696 5.06738 16.2696 5.06738C16.2696 5 16.2696 5 16.1986 5C16.1277 5 15.2057 5 14.0001 5C12.8653 5 11.8724 5 11.8015 5C11.7306 5 11.7306 5 11.7306 5.06738C11.7306 5.13475 11.7306 6.07801 11.7306 7.2234C11.7306 8.36879 11.0213 8.6383 10.1703 7.82979C9.24829 7.02128 8.53907 6.28014 8.53907 6.28014H8.46815C8.46815 6.28014 7.75893 6.9539 6.90786 7.76241C6.0568 8.57092 5.34758 9.1773 5.34758 9.24468V9.31206C5.34758 9.31206 6.12772 10.0532 6.97878 10.8617C7.82985 11.6702 7.54616 12.344 6.34049 12.344C5.13481 12.344 4.07098 12.344 4.07098 12.344C4.00006 12.344 4.00006 12.344 4.00006 12.4113C4.00006 12.4787 4.00006 13.3546 4.00006 14.5C4.00006 15.578 4.00006 16.5213 4.00006 16.5887C4.00006 16.656 4.00006 16.656 4.07098 16.656C4.14191 16.656 5.13481 16.656 6.34049 16.656C7.54616 16.656 7.82985 17.3298 6.97878 18.1383C6.0568 18.9468 5.34758 19.6879 5.34758 19.6879V19.7553C5.34758 19.7553 6.0568 20.4291 6.90786 21.2376C7.75893 22.0461 8.39722 22.6525 8.46815 22.7199H8.53907C8.53907 22.7199 9.31921 21.9787 10.1703 21.1702C11.0213 20.3617 11.7306 20.6312 11.7306 21.7766C11.7306 22.922 11.7306 23.9326 11.7306 23.9326C11.7306 24 11.7306 24 11.8015 24C11.8724 24 12.7944 24 14.0001 24C15.1348 24 16.1277 24 16.1986 24C16.2696 24 16.2696 24 16.2696 23.9326C16.2696 23.9326 16.2696 22.922 16.2696 21.7766C16.2696 20.6312 16.9788 20.3617 17.8298 21.1702C18.6809 21.9787 19.3901 22.7199 19.4611 22.7199H19.532C19.532 22.7199 20.2412 22.0461 21.0923 21.2376C21.9433 20.4291 22.5816 19.8227 22.6525 19.7553V19.6879C22.6525 19.6879 21.8724 18.9468 21.0213 18.1383C20.1703 17.3298 20.454 16.656 21.6596 16.656C22.8653 16.656 23.9291 16.656 23.9291 16.656C24.0001 16.656 24.0001 16.656 24.0001 16.5887C24.0001 16.5213 24.0001 15.6454 24.0001 14.5C24.0001 13.422 24.0001 12.4787 23.9291 12.344C24.0001 12.4113 24.0001 12.344 23.9291 12.344ZM14.1419 17.6667C12.2979 17.6667 10.7376 16.2518 10.7376 14.4326C10.7376 12.6809 12.227 11.1986 14.1419 11.1986C15.9859 11.1986 17.5462 12.6135 17.5462 14.4326C17.4752 16.1844 15.9859 17.6667 14.1419 17.6667Z" fill="#C4C4C4"/>
<path d="M16.1089 24H11.8912C11.6871 24 11.4831 23.7959 11.4831 23.5918V21.415C11.4831 20.9388 11.347 20.7347 11.279 20.6667C11.1429 20.5986 10.9388 20.6667 10.5987 21.0068L9.37421 22.2313C9.1021 22.4354 8.96605 22.5034 8.96605 22.5714L8.89802 22.6395H8.69394C8.55788 22.6395 8.48986 22.5714 8.42183 22.5034L5.42863 19.5102C5.29258 19.3742 5.29258 19.102 5.42863 18.966C5.49666 18.898 5.70074 18.6939 6.1089 18.2857L6.99326 17.4014C7.33339 17.0612 7.40142 16.7891 7.33339 16.7211C7.26537 16.585 7.06129 16.517 6.5851 16.517H4.40822C4.20414 16.517 4.00006 16.3129 4.00006 16.1088V11.8912C4.00006 11.6871 4.20414 11.483 4.40822 11.483H6.5851C7.06129 11.483 7.26537 11.3469 7.33339 11.2789C7.40142 11.2109 7.33339 10.9388 6.99326 10.5986C6.17693 9.78231 5.49666 9.10204 5.42863 9.03401C5.29258 8.82993 5.29258 8.62585 5.42863 8.4898C5.42863 8.4898 6.1089 7.80952 6.92523 6.9932L7.06129 6.78912C7.80958 6.10884 8.3538 5.4966 8.42183 5.4966C8.55788 5.36054 8.82999 5.36054 8.96605 5.4966C9.03407 5.4966 9.71435 6.17687 10.5307 6.9932C10.8708 7.33333 11.1429 7.40136 11.2109 7.33333C11.347 7.26531 11.415 7.06122 11.415 6.58503V4.40816C11.415 4.20408 11.6191 4 11.8232 4H16.0409C16.245 4 16.449 4.20408 16.449 4.40816V6.58503C16.449 7.06122 16.5851 7.26531 16.6531 7.33333C16.7892 7.40136 16.9933 7.33333 17.3334 6.9932L18.966 5.4966C19.1021 5.36054 19.1701 5.36054 19.3062 5.36054H19.4422L19.7824 5.70068L22.5715 8.4898C22.7075 8.62585 22.7075 8.89796 22.5715 9.03401C22.5035 9.10204 22.1633 9.44218 21.6871 9.91837L21.0069 10.5986C20.6667 10.9388 20.5987 11.2109 20.6667 11.2789C20.7348 11.415 20.9388 11.483 21.415 11.483H23.5919C23.796 11.483 24.0001 11.6871 24.0001 11.8912V16.1088C24.0001 16.3129 23.796 16.517 23.5919 16.517H21.347C20.8708 16.517 20.6667 16.6531 20.5987 16.7211C20.5307 16.8571 20.5987 17.0612 20.9388 17.4014L21.9592 18.4218C22.2314 18.6939 22.4354 18.898 22.4354 18.898C22.5715 19.102 22.5715 19.3061 22.4354 19.4422L20.5307 21.3469C19.9184 21.9592 19.5103 22.3673 19.4422 22.4354L19.3742 22.5034H19.1701C19.0341 22.5034 18.966 22.4354 18.898 22.3673C18.898 22.3673 18.762 22.2313 18.5579 22.0272L17.3334 20.8027C16.9933 20.4626 16.7211 20.3946 16.6531 20.4626C16.5171 20.5306 16.449 20.7347 16.449 21.2109V23.3878C16.5171 23.7959 16.313 24 16.1089 24ZM12.1633 23.3197H15.8368V21.415C15.8368 20.4626 16.245 20.1224 16.5171 20.0544C16.7892 19.9864 17.2654 19.8503 17.9456 20.5986L19.1701 21.8231C19.2382 21.8912 19.3062 21.9592 19.3062 21.9592C19.5103 21.7551 19.7824 21.483 20.1905 21.0748L21.8912 19.3741C21.8232 19.3061 21.6871 19.1701 21.5511 19.034L20.5307 18.0136C19.8504 17.3333 19.9184 16.7891 19.9865 16.585C20.0545 16.3129 20.3946 15.9048 21.347 15.9048H23.2518V12.2313H21.347C20.3946 12.2313 20.0545 11.8231 19.9865 11.551C19.9184 11.2789 19.8504 10.8027 20.5307 10.1224L21.2109 9.44218C21.4831 9.17007 21.7552 8.89796 21.8912 8.7619C21.8232 8.69388 21.8232 8.69388 21.7552 8.62585L19.3062 6.17687L17.9456 7.53741C17.2654 8.21769 16.7211 8.14966 16.5171 8.08163C16.245 8.01361 15.8368 7.67347 15.8368 6.72109V4.68027H12.1633V6.58503C12.1633 7.53741 11.7552 7.87755 11.4831 7.94558C11.2109 8.01361 10.7348 8.08163 10.0545 7.40136C9.8504 7.19728 9.1021 6.44898 8.69394 6.04082C8.48986 6.31293 8.14972 6.65306 7.53748 7.26531L7.40142 7.40136C6.8572 7.94558 6.38101 8.4898 6.1089 8.69388C6.31299 8.89796 6.72115 9.30612 7.46945 10.0544C8.14972 10.7347 8.08169 11.2789 8.01367 11.483C7.94564 11.7551 7.6055 12.1633 6.65312 12.1633H4.68033V15.8367H6.5851C7.53748 15.8367 7.87761 16.2449 7.94564 16.517C8.01367 16.7891 8.08169 17.2653 7.40142 17.9456L6.51707 18.8299C6.31299 19.034 6.17693 19.1701 6.04088 19.3061L8.62591 21.8912L9.98646 20.5306C10.6667 19.8503 11.2109 19.9184 11.415 19.9864C11.6871 20.0544 12.0953 20.3946 12.0953 21.3469V23.3197H12.1633ZM19.1021 22.0272C19.0341 22.0272 19.0341 22.0272 19.1021 22.0272C19.0341 22.0272 19.0341 22.0272 19.1021 22.0272ZM14.1361 17.5374C12.1633 17.5374 10.5307 15.9048 10.5307 13.932C10.5307 11.9592 12.1633 10.3265 14.1361 10.3265C16.1089 10.3265 17.7416 11.9592 17.7416 13.932C17.6735 15.9048 16.1089 17.5374 14.1361 17.5374ZM14.1361 11.0068C12.5715 11.0068 11.2109 12.2993 11.2109 13.932C11.2109 15.4966 12.5035 16.8571 14.1361 16.8571C15.7007 16.8571 17.0613 15.5646 17.0613 13.932C16.9933 12.3673 15.7007 11.0068 14.1361 11.0068Z" fill="black"/>
</svg>
