<svg width="30" height="30" viewBox="1 1 23 23" fill="none" xmlns="http://www.w3.org/2000/svg">
<path d="M12.5 23.5C18.5751 23.5 23.5 18.5751 23.5 12.5C23.5 6.42487 18.5751 1.5 12.5 1.5C6.42487 1.5 1.5 6.42487 1.5 12.5C1.5 18.5751 6.42487 23.5 12.5 23.5Z" fill="#C4C4C4"/>
<path d="M12.5 24C6.2 24 1 18.8 1 12.5C1 6.2 6.2 1 12.5 1C18.8 1 24 6.2 24 12.5C24 18.8 18.8 24 12.5 24ZM12.5 2C6.7 2 2 6.7 2 12.5C2 18.3 6.7 23 12.5 23C18.3 23 23 18.3 23 12.5C23 6.7 18.3 2 12.5 2Z" fill="black"/>
<path d="M12.5 24V23C14.9 23 17 18.2 17 12.5C17 6.8 14.9 2 12.5 2V1C15.6 1 18 6.1 18 12.5C18 18.9 15.6 24 12.5 24Z" fill="#757575"/>
<path d="M12.5 18C6.1 18 1 15.6 1 12.5H2C2 14.9 6.8 17 12.5 17C18.2 17 23 14.9 23 12.5H24C24 15.6 18.9 18 12.5 18Z" fill="#757575"/>
<path d="M12.5 24C9.4 24 7 18.9 7 12.5C7 6.1 9.4 1 12.5 1V2C10.1 2 8 6.8 8 12.5C8 18.2 10.1 23 12.5 23V24Z" fill="black"/>
<path d="M24 12.5H23C23 10.1 18.2 8 12.5 8C6.8 8 2 10.1 2 12.5H1C1 9.4 6.1 7 12.5 7C18.9 7 24 9.4 24 12.5Z" fill="black"/>
<path d="M12.5 24C6.2 24 1 18.8 1 12.5C1 6.2 6.2 1 12.5 1C18.8 1 24 6.2 24 12.5C24 18.8 18.8 24 12.5 24ZM12.5 2C6.7 2 2 6.7 2 12.5C2 18.3 6.7 23 12.5 23C18.3 23 23 18.3 23 12.5C23 6.7 18.3 2 12.5 2Z" fill="black"/>
</svg>
