<svg width="30px" height="30px" viewBox="1 1 23 23" fill="none" xmlns="http://www.w3.org/2000/svg">
<path d="M12.5 23.5C18.5751 23.5 23.5 18.5751 23.5 12.5C23.5 6.42487 18.5751 1.5 12.5 1.5C6.42487 1.5 1.5 6.42487 1.5 12.5C1.5 18.5751 6.42487 23.5 12.5 23.5Z" fill="url(#paint0_radial_263_640495)"/>
<path d="M12.5 24C6.2 24 1 18.8 1 12.5C1 6.2 6.2 1 12.5 1C18.8 1 24 6.2 24 12.5C24 18.8 18.8 24 12.5 24ZM12.5 2C6.7 2 2 6.7 2 12.5C2 18.3 6.7 23 12.5 23C18.3 23 23 18.3 23 12.5C23 6.7 18.3 2 12.5 2Z" fill="#005494"/>
<path d="M12.5 24C6.2 24 1 18.8 1 12.5C1 6.2 6.2 1 12.5 1C18.8 1 24 6.2 24 12.5C24 18.8 18.8 24 12.5 24ZM12.5 2C6.7 2 2 6.7 2 12.5C2 18.3 6.7 23 12.5 23C18.3 23 23 18.3 23 12.5C23 6.7 18.3 2 12.5 2Z" fill="black"/>
<path d="M12.5 24C9.4 24 7 18.9 7 12.5C7 6.1 9.4 1 12.5 1V2C10.1 2 8 6.8 8 12.5C8 18.2 10.1 23 12.5 23V24Z" fill="black"/>
<path d="M24 12.5H23C23 10.1 18.2 8 12.5 8C6.8 8 2 10.1 2 12.5H1C1 9.4 6.1 7 12.5 7C18.9 7 24 9.4 24 12.5Z" fill="black"/>
<defs>
<radialGradient id="paint0_radial_263_640495" cx="0" cy="0" r="1" gradientUnits="userSpaceOnUse" gradientTransform="translate(10.4 9.94962) scale(12.8709 12.8696)">
<stop stop-color="white"/>
<stop offset="0.4011" stop-color="#249BF1"/>
<stop offset="0.9255" stop-color="#005494"/>
</radialGradient>
</defs>
</svg>
