<svg width="30" height="30" viewBox="0 0 24 24" fill="none" xmlns="http://www.w3.org/2000/svg">
<g clip-path="url(#clip0_263_640507)">
<path d="M12.5 24C6.2 24 1 18.8 1 12.5C1 6.2 6.2 1 12.5 1C18.8 1 24 6.2 24 12.5C24 18.8 18.8 24 12.5 24ZM12.5 2C6.7 2 2 6.7 2 12.5C2 18.3 6.7 23 12.5 23C18.3 23 23 18.3 23 12.5C23 6.7 18.3 2 12.5 2Z" fill="black"/>
<path d="M12.5 24C6.2 24 1 18.8 1 12.5C1 6.2 6.2 1 12.5 1C18.8 1 24 6.2 24 12.5C24 18.8 18.8 24 12.5 24ZM12.5 2C6.7 2 2 6.7 2 12.5C2 18.3 6.7 23 12.5 23C18.3 23 23 18.3 23 12.5C23 6.7 18.3 2 12.5 2Z" fill="black"/>
<path d="M4.5 1H-0.5V2H4.5V1Z" fill="black"/>
<path d="M1.5 0H0.5V5H1.5V0Z" fill="black"/>
<path d="M24.5 1H19.5V2H24.5V1Z" fill="black"/>
<path d="M23.5 0H22.5V5H23.5V0Z" fill="black"/>
<path d="M4.5 22H-0.5V23H4.5V22Z" fill="black"/>
<path d="M1.5 19H0.5V24H1.5V19Z" fill="black"/>
<path d="M24.5 22H19.5V23H24.5V22Z" fill="black"/>
<path d="M23.5 19H22.5V24H23.5V19Z" fill="black"/>
</g>
<defs>
<clipPath id="clip0_263_640507">
<rect width="24.1" height="24.1" fill="white"/>
</clipPath>
</defs>
</svg>
