<svg width="30" height="30" viewBox="1 1 23 23" fill="none" xmlns="http://www.w3.org/2000/svg">
<g clip-path="url(#clip0_263_640518)">
<g opacity="0.75">
<path opacity="0.75" d="M12.5 23.5C18.5751 23.5 23.5 18.5751 23.5 12.5C23.5 6.42487 18.5751 1.5 12.5 1.5C6.42487 1.5 1.5 6.42487 1.5 12.5C1.5 18.5751 6.42487 23.5 12.5 23.5Z" fill="url(#paint0_radial_263_640518)"/>
<path opacity="0.75" d="M12.5 24C6.2 24 1 18.8 1 12.5C1 6.2 6.2 1 12.5 1C18.8 1 24 6.2 24 12.5C24 18.8 18.8 24 12.5 24ZM12.5 2C6.7 2 2 6.7 2 12.5C2 18.3 6.7 23 12.5 23C18.3 23 23 18.3 23 12.5C23 6.7 18.3 2 12.5 2Z" fill="#005494"/>
</g>
<path d="M12.5 24C6.2 24 1 18.8 1 12.5C1 6.2 6.2 1 12.5 1C18.8 1 24 6.2 24 12.5C24 18.8 18.8 24 12.5 24ZM12.5 2C6.7 2 2 6.7 2 12.5C2 18.3 6.7 23 12.5 23C18.3 23 23 18.3 23 12.5C23 6.7 18.3 2 12.5 2Z" fill="#226496"/>
<path d="M12.5 24C9.4 24 7 18.9 7 12.5C7 6.1 9.4 1 12.5 1V2C10.1 2 8 6.8 8 12.5C8 18.2 10.1 23 12.5 23V24Z" fill="#226496"/>
<path d="M12.5 24C8.1 24 4.5 18.8 4.5 12.5C4.5 6.2 8.1 1 12.5 1V2C8.6 2 5.5 6.7 5.5 12.5C5.5 18.3 8.6 23 12.5 23V24Z" fill="#226496"/>
<path d="M12.5 24C7 24 2.5 18.8 2.5 12.5C2.5 6.2 7 1 12.5 1V2C7.5 2 3.5 6.7 3.5 12.5C3.5 18.3 7.5 23 12.5 23V24Z" fill="#226496"/>
<path d="M12.5 24C10.1 24 9.5 16.5 9.5 12.5C9.5 8.5 10.1 1 12.5 1V2C11.8 2 10.5 5.7 10.5 12.5C10.5 19.3 11.8 23 12.5 23V24Z" fill="#226496"/>
<path d="M13 24V23C15.4 23 17.5 18.2 17.5 12.5C17.5 6.8 15.4 2 13 2V1C16.1 1 18.5 6.1 18.5 12.5C18.5 18.9 16.1 24 13 24Z" fill="#226496"/>
<path d="M13 24V23C16.9 23 20 18.3 20 12.5C20 6.7 16.9 2 13 2V1C17.4 1 21 6.2 21 12.5C21 18.8 17.4 24 13 24Z" fill="#226496"/>
<path d="M13 24V23C18 23 22 18.3 22 12.5C22 6.7 18 2 13 2V1C18.5 1 23 6.2 23 12.5C23 18.8 18.5 24 13 24Z" fill="#226496"/>
<path d="M13 24V23C13.7 23 15 19.3 15 12.5C15 5.7 13.7 2 13 2V1C15.4 1 16 8.5 16 12.5C16 16.5 15.4 24 13 24Z" fill="#226496"/>
<path d="M13 1.10001H12V23.9H13V1.10001Z" fill="#226496"/>
<path d="M12.6 24.1C6.30001 24.1 1.10001 18.9 1.10001 12.6C1.10001 6.30001 6.20001 1.10001 12.6 1.10001C19 1.10001 24.1 6.30001 24.1 12.6C24.1 18.9 18.9 24.1 12.6 24.1ZM12.6 2.10001C6.80001 2.10001 2.10001 6.80001 2.10001 12.6C2.10001 18.4 6.80001 23.1 12.6 23.1C18.4 23.1 23.1 18.4 23.1 12.6C23.1 6.80001 18.4 2.10001 12.6 2.10001Z" fill="#226496"/>
<path d="M24.1 12.6H23.1C23.1 10.2 18.3 8.10001 12.6 8.10001C6.90001 8.10001 2.10001 10.1 2.10001 12.6H1.10001C1.10001 9.50001 6.20001 7.10001 12.6 7.10001C19 7.10001 24.1 9.50001 24.1 12.6Z" fill="#226496"/>
<path d="M24.1 12.6H23.1C23.1 8.70001 18.4 5.60001 12.6 5.60001C6.80001 5.60001 2.10001 8.70001 2.10001 12.6H1.10001C1.10001 8.20001 6.30001 4.60001 12.6 4.60001C18.9 4.60001 24.1 8.20001 24.1 12.6Z" fill="#226496"/>
<path d="M24.1 12.6H23.1C23.1 7.60001 18.4 3.60001 12.6 3.60001C6.80001 3.60001 2.10001 7.60001 2.10001 12.6H1.10001C1.10001 7.10001 6.30001 2.60001 12.6 2.60001C18.9 2.60001 24.1 7.10001 24.1 12.6Z" fill="#226496"/>
<path d="M24.1 12.6H23.1C23.1 11.9 19.4 10.6 12.6 10.6C5.80001 10.6 2.10001 11.9 2.10001 12.6H1.10001C1.10001 10.2 8.60001 9.60001 12.6 9.60001C16.6 9.60001 24.1 10.2 24.1 12.6Z" fill="#226496"/>
<path d="M12.6 18.6C6.20001 18.6 1.10001 16.2 1.10001 13.1H2.10001C2.10001 15.5 6.90001 17.6 12.6 17.6C18.3 17.6 23.1 15.5 23.1 13.1H24.1C24.1 16.1 19 18.6 12.6 18.6Z" fill="#226496"/>
<path d="M12.6 21.1C6.30001 21.1 1.10001 17.5 1.10001 13.1H2.10001C2.10001 17 6.80001 20.1 12.6 20.1C18.4 20.1 23.1 17 23.1 13.1H24.1C24.1 17.5 18.9 21.1 12.6 21.1Z" fill="#226496"/>
<path d="M12.6 23.1C6.30001 23.1 1.10001 18.6 1.10001 13.1H2.10001C2.10001 18.1 6.80001 22.1 12.6 22.1C18.4 22.1 23.1 18.1 23.1 13.1H24.1C24.1 18.6 18.9 23.1 12.6 23.1Z" fill="#226496"/>
<path d="M12.6 16.1C8.60001 16.1 1.10001 15.5 1.10001 13.1H2.10001C2.10001 13.8 5.80001 15.1 12.6 15.1C19.4 15.1 23.1 13.8 23.1 13.1H24.1C24.1 15.4 16.5 16.1 12.6 16.1Z" fill="#226496"/>
<path d="M23.9 12.1H1.10001V13.1H23.9V12.1Z" fill="#226496"/>
</g>
<defs>
<radialGradient id="paint0_radial_263_640518" cx="0" cy="0" r="1" gradientUnits="userSpaceOnUse" gradientTransform="translate(10.4 9.94962) scale(12.8709 12.8696)">
<stop stop-color="white"/>
<stop offset="0.4011" stop-color="#249BF1"/>
<stop offset="0.9255" stop-color="#005494"/>
</radialGradient>
<clipPath id="clip0_263_640518">
<rect width="24.1" height="24.1" fill="white"/>
</clipPath>
</defs>
</svg>
